<?xml version="1.0" encoding="UTF-8"?>
<svg id="Capa_1" data-name="Capa 1" xmlns="http://www.w3.org/2000/svg" viewBox="0 0 500 500">
  <defs>
    <style>
      .cls-1 {
        fill: #fff;
      }

      .cls-2 {
        fill: none;
        stroke: #fff;
        stroke-miterlimit: 10;
        stroke-width: 15px;
      }

      .cls-3 {
        fill: #f2601a;
      }
    </style>
  </defs>
  <rect class="cls-3" x="5.11" y="5.11" width="489.77" height="489.77" rx="40.34" ry="40.34"/>
  <path class="cls-2" d="M397.08,396.27c0,.33-84.71,2.4-254.12,6.2-8.22-6.56-33.82-28.7-42.05-67.04-1.7-7.94-5.52-29.9,1.7-54.55,17.42-59.45,83.1-80.01,89.2-81.82-5.87-4.92-11.74-9.85-17.61-14.77-37.82-26.02-50-52.56-54.55-66.48-2.35-7.21-6.52-20.47-.57-26.14,6.96-6.62,23.77.89,30.68,3.98,13.64,6.1,40.4,21.83,63.07,65.91,2.57.18,6.46.41,11.2.56,33.41,1.04,52.55-4.06,66.08-5.1,25.14-1.95,58.91,7.88,79.55,32.05,26.44,30.95,30.32,83.25,12.5,95.23-3.17,2.13-6.69,2.75-9.66,2.84-11.76-2.3-29.46-3.57-47.73,3.98-8.75,3.61-18.41,7.59-22.16,17.05-4.43,11.16.52,25.74,12.48,36.83-6.14-3.83-16.01-8.97-29.12-11.8-13.57-2.93-25.05-2.18-32.31-1.13,7.27-1.04,18.75-1.8,32.31,1.13,13.11,2.83,22.98,7.98,29.12,11.8,1.85-.08,24.16-.59,37.52,17.72,10.78,14.77,7.96,31.11,7.43,33.95,24.69-.38,37.03-.51,37.03-.38Z"/>
  <path class="cls-2" d="M274.74,161.57c-3.38-22.56.63-38.77,3.99-48.12,2.4-6.68,6.65-18.49,13.07-18.75,6.57-.27,11.88,11.67,14.77,18.18,3.95,8.88,8.82,23.93,7.41,45.15"/>
  <path class="cls-2" d="M100.2,284.52c-16.17-3.85-32.83,1.21-42.89,13.18-7.82,9.31-12.74,24.07-7.56,37.84,4.9,13.04,16.4,18.71,20.41,20.69,17.35,8.57,34.32,3.02,38.12,1.67"/>
  <circle class="cls-1" cx="321.04" cy="223.94" r="21.81"/>
</svg>